<svg width="1803" height="526" viewBox="0 0 1803 526" fill="none" xmlns="http://www.w3.org/2000/svg">
<g clip-path="url(#clip0_127_119)">
<rect width="1803" height="526" fill="white"/>
<rect width="1803" height="530" fill="black"/>
<rect width="1803" height="530" fill="url(#paint0_linear_127_119)"/>
<path d="M-11.0001 574L-11.0001 -12.1934L78.303 -12.1934L78.303 224.948L158.276 224.948L158.276 -12.1934L247.579 -12.1934L247.579 574L158.276 574L158.276 301.553L78.303 301.553L78.303 574L-11.0001 574Z" fill="url(#paint1_linear_127_119)" fill-opacity="0.05"/>
<path d="M366.206 574L366.206 65.0776L297.562 65.0776L297.562 -12.1934L521.154 -12.1934L521.154 65.0776L455.176 65.0776L455.176 574L366.206 574Z" fill="url(#paint2_linear_127_119)" fill-opacity="0.05"/>
<path d="M602.126 574L602.126 65.0776L533.483 65.0776L533.483 -12.1934L757.074 -12.1934L757.074 65.0776L691.096 65.0776L691.096 574L602.126 574Z" fill="url(#paint3_linear_127_119)" fill-opacity="0.05"/>
<path d="M807.39 574L807.39 -12.1934L942.012 -12.1934C965.337 -12.1934 984.664 -8.64068 999.992 -1.5353C1015.54 5.57007 1027.76 16.1171 1036.65 30.1058C1045.53 44.0945 1051.86 61.4139 1055.64 82.0639C1059.42 102.492 1061.3 126.139 1061.3 153.007L1061.3 165.33C1061.3 203.077 1057.97 235.273 1051.31 261.919C1044.87 288.342 1033.2 308.437 1016.32 322.203C999.437 335.97 975.667 342.853 945.011 342.853L896.694 342.853L896.694 574L807.39 574ZM896.694 269.246L927.35 269.246C940.457 269.246 950.231 265.915 956.673 259.254C963.116 252.593 967.336 241.602 969.336 226.281C971.557 210.738 972.668 190.088 972.668 164.331L972.668 153.007C972.446 121.254 969.669 97.2738 964.337 81.0647C959.006 64.6335 946.899 56.4179 928.016 56.4179L896.694 56.4179L896.694 269.246Z" fill="url(#paint4_linear_127_119)" fill-opacity="0.05"/>
<circle cx="1203.09" cy="141.504" r="67.9126" fill="#D9D9D9" fill-opacity="0.03"/>
<circle cx="1203.09" cy="434.6" r="67.9126" fill="#D9D9D9" fill-opacity="0.03"/>
<path d="M215 367H1587.5" stroke="white"/>
<path d="M578.438 288.5L611.562 216H630.688L585.25 307H572.438L578.438 288.5ZM569.312 216L579.938 290L580.25 307H568.125L551.312 216H569.312ZM652.062 239.375L640.375 307H624.188L635.938 239.375H652.062ZM637.938 222C637.896 219.375 638.75 217.25 640.5 215.625C642.292 213.958 644.479 213.104 647.062 213.062C649.521 213.021 651.646 213.771 653.438 215.312C655.271 216.812 656.188 218.854 656.188 221.438C656.229 224.021 655.354 226.125 653.562 227.75C651.771 229.375 649.604 230.208 647.062 230.25C644.604 230.292 642.479 229.562 640.688 228.062C638.896 226.562 637.979 224.542 637.938 222ZM680.438 254.75L671.375 307H655.188L666.938 239.375H682.062L680.438 254.75ZM675.25 270.75L670.812 270.812C671.312 266.771 672.271 262.792 673.688 258.875C675.104 254.917 677.021 251.354 679.438 248.188C681.896 245.021 684.875 242.521 688.375 240.688C691.875 238.854 695.938 237.979 700.562 238.062C704.271 238.188 707.333 238.958 709.75 240.375C712.208 241.792 714.104 243.688 715.438 246.062C716.771 248.396 717.625 251.083 718 254.125C718.417 257.167 718.438 260.333 718.062 263.625L710.875 307H694.625L701.938 263.438C702.188 261.104 702.104 259.021 701.688 257.188C701.312 255.354 700.458 253.917 699.125 252.875C697.792 251.792 695.833 251.229 693.25 251.188C690.5 251.104 688.083 251.625 686 252.75C683.917 253.875 682.146 255.396 680.688 257.312C679.229 259.229 678.062 261.375 677.188 263.75C676.312 266.083 675.667 268.417 675.25 270.75ZM727.062 299.188C727.021 296.562 727.896 294.375 729.688 292.625C731.479 290.875 733.688 290 736.312 290C738.854 289.958 741 290.75 742.75 292.375C744.542 293.958 745.458 296.042 745.5 298.625C745.542 301.292 744.646 303.479 742.812 305.188C741.021 306.896 738.833 307.75 736.25 307.75C733.75 307.792 731.583 307.021 729.75 305.438C727.958 303.854 727.062 301.771 727.062 299.188ZM787 303.688C790.708 303.688 794.104 302.979 797.188 301.562C800.271 300.146 802.896 298.146 805.062 295.562C807.271 292.938 808.854 289.875 809.812 286.375H814.625C813.708 290.75 811.896 294.583 809.188 297.875C806.521 301.167 803.271 303.729 799.438 305.562C795.604 307.354 791.458 308.25 787 308.25C782.25 308.25 778.292 307.271 775.125 305.312C772 303.312 769.562 300.688 767.812 297.438C766.104 294.146 765 290.521 764.5 286.562C764 282.562 764.021 278.562 764.562 274.562L764.875 271.875C765.542 267.667 766.688 263.562 768.312 259.562C769.979 255.521 772.146 251.896 774.812 248.688C777.479 245.438 780.667 242.854 784.375 240.938C788.083 239.021 792.292 238.083 797 238.125C801.625 238.125 805.604 239.167 808.938 241.25C812.271 243.333 814.771 246.167 816.438 249.75C818.104 253.292 818.812 257.333 818.562 261.875H813.75C814.042 258.25 813.542 255 812.25 252.125C811 249.25 809.062 246.958 806.438 245.25C803.854 243.542 800.688 242.688 796.938 242.688C792.854 242.646 789.25 243.479 786.125 245.188C783 246.854 780.333 249.104 778.125 251.938C775.917 254.729 774.125 257.875 772.75 261.375C771.375 264.833 770.417 268.333 769.875 271.875L769.438 274.5C768.938 277.833 768.812 281.208 769.062 284.625C769.354 288.042 770.125 291.188 771.375 294.062C772.625 296.938 774.521 299.25 777.062 301C779.646 302.75 782.958 303.646 787 303.688ZM827.562 274.438L827.875 272.062C828.542 267.729 829.792 263.542 831.625 259.5C833.458 255.417 835.812 251.771 838.688 248.562C841.562 245.312 844.938 242.75 848.812 240.875C852.688 239 857 238.083 861.75 238.125C866.458 238.125 870.458 239.104 873.75 241.062C877.083 243.021 879.729 245.625 881.688 248.875C883.646 252.083 884.958 255.708 885.625 259.75C886.333 263.75 886.417 267.833 885.875 272L885.562 274.375C884.896 278.708 883.646 282.896 881.812 286.938C879.979 290.979 877.625 294.625 874.75 297.875C871.875 301.083 868.5 303.625 864.625 305.5C860.792 307.375 856.5 308.292 851.75 308.25C847.042 308.25 843.021 307.292 839.688 305.375C836.396 303.417 833.771 300.812 831.812 297.562C829.854 294.312 828.521 290.688 827.812 286.688C827.104 282.688 827.021 278.604 827.562 274.438ZM832.875 272.062L832.5 274.5C832 277.875 831.979 281.292 832.438 284.75C832.896 288.167 833.875 291.312 835.375 294.188C836.917 297.021 839.042 299.312 841.75 301.062C844.458 302.812 847.792 303.688 851.75 303.688C855.792 303.729 859.438 302.917 862.688 301.25C865.979 299.542 868.854 297.292 871.312 294.5C873.771 291.667 875.771 288.5 877.312 285C878.854 281.5 879.938 277.958 880.562 274.375L880.938 272C881.438 268.625 881.438 265.229 880.938 261.812C880.479 258.354 879.5 255.188 878 252.312C876.5 249.438 874.396 247.125 871.688 245.375C868.979 243.583 865.646 242.688 861.688 242.688C857.688 242.646 854.042 243.479 850.75 245.188C847.5 246.854 844.646 249.104 842.188 251.938C839.729 254.771 837.708 257.938 836.125 261.438C834.542 264.938 833.458 268.479 832.875 272.062ZM908.938 253.812L899.688 307H894.812L906.375 239.375H911.25L908.938 253.812ZM905.688 268L903.688 265.062C904.604 261.604 905.938 258.271 907.688 255.062C909.479 251.854 911.646 248.979 914.188 246.438C916.729 243.854 919.604 241.833 922.812 240.375C926.062 238.875 929.625 238.125 933.5 238.125C937.167 238.125 940.229 238.75 942.688 240C945.146 241.208 947.062 242.917 948.438 245.125C949.812 247.292 950.688 249.812 951.062 252.688C951.438 255.562 951.396 258.667 950.938 262L943.188 307H938.312L946 262.062C946.583 258.479 946.562 255.229 945.938 252.312C945.354 249.354 943.979 247 941.812 245.25C939.646 243.5 936.542 242.646 932.5 242.688C929 242.688 925.792 243.417 922.875 244.875C919.958 246.333 917.354 248.292 915.062 250.75C912.812 253.167 910.896 255.875 909.312 258.875C907.729 261.833 906.521 264.875 905.688 268ZM950.938 262.438L947.75 261.125C948.708 257.917 950.104 254.917 951.938 252.125C953.812 249.292 956.021 246.833 958.562 244.75C961.146 242.667 964 241.042 967.125 239.875C970.25 238.708 973.562 238.125 977.062 238.125C980.854 238.125 983.979 238.792 986.438 240.125C988.938 241.458 990.854 243.271 992.188 245.562C993.521 247.854 994.354 250.521 994.688 253.562C995.021 256.562 994.938 259.75 994.438 263.125L986.938 307H982L989.5 263.062C990.083 259.479 990.125 256.125 989.625 253C989.125 249.875 987.812 247.354 985.688 245.438C983.604 243.521 980.458 242.604 976.25 242.688C973.292 242.729 970.479 243.25 967.812 244.25C965.146 245.25 962.688 246.646 960.438 248.438C958.188 250.229 956.25 252.333 954.625 254.75C953 257.125 951.771 259.688 950.938 262.438ZM1020.44 252.5L1006.5 333H1001.56L1017.75 239.375H1022.44L1020.44 252.5ZM1063.38 272.438L1063.19 273.75C1062.52 277.708 1061.44 281.729 1059.94 285.812C1058.44 289.854 1056.46 293.583 1054 297C1051.54 300.375 1048.56 303.104 1045.06 305.188C1041.56 307.271 1037.48 308.292 1032.81 308.25C1029.73 308.25 1026.79 307.708 1024 306.625C1021.21 305.5 1018.75 303.938 1016.62 301.938C1014.54 299.938 1012.92 297.583 1011.75 294.875C1010.62 292.125 1010.15 289.125 1010.31 285.875L1014.25 262.375C1015.12 259.042 1016.5 255.917 1018.38 253C1020.25 250.083 1022.5 247.5 1025.12 245.25C1027.75 242.958 1030.67 241.188 1033.88 239.938C1037.08 238.688 1040.44 238.083 1043.94 238.125C1048.65 238.167 1052.42 239.25 1055.25 241.375C1058.08 243.5 1060.17 246.292 1061.5 249.75C1062.88 253.167 1063.67 256.875 1063.88 260.875C1064.08 264.875 1063.92 268.729 1063.38 272.438ZM1058.19 273.75L1058.44 272.438C1058.9 269.438 1059.1 266.229 1059.06 262.812C1059.02 259.354 1058.52 256.125 1057.56 253.125C1056.6 250.083 1054.98 247.604 1052.69 245.688C1050.44 243.729 1047.29 242.75 1043.25 242.75C1040.25 242.708 1037.35 243.229 1034.56 244.312C1031.81 245.354 1029.27 246.812 1026.94 248.688C1024.6 250.562 1022.58 252.75 1020.88 255.25C1019.17 257.708 1017.92 260.396 1017.12 263.312L1013.19 285.562C1012.98 289.188 1013.77 292.375 1015.56 295.125C1017.4 297.833 1019.79 299.938 1022.75 301.438C1025.75 302.938 1028.94 303.688 1032.31 303.688C1036.31 303.729 1039.79 302.833 1042.75 301C1045.75 299.167 1048.27 296.771 1050.31 293.812C1052.4 290.854 1054.06 287.625 1055.31 284.125C1056.6 280.583 1057.56 277.125 1058.19 273.75ZM1117.44 294.562L1123.38 259.625C1123.96 256 1123.67 252.938 1122.5 250.438C1121.33 247.896 1119.48 245.979 1116.94 244.688C1114.44 243.354 1111.42 242.667 1107.88 242.625C1104.62 242.625 1101.44 243.229 1098.31 244.438C1095.19 245.604 1092.46 247.333 1090.12 249.625C1087.79 251.875 1086.23 254.646 1085.44 257.938L1080.56 257.875C1081.1 254.708 1082.27 251.896 1084.06 249.438C1085.85 246.979 1088.04 244.917 1090.62 243.25C1093.21 241.583 1096 240.312 1099 239.438C1102 238.562 1105.02 238.125 1108.06 238.125C1112.44 238.125 1116.25 239 1119.5 240.75C1122.79 242.458 1125.23 244.917 1126.81 248.125C1128.44 251.333 1128.92 255.208 1128.25 259.75L1122.56 293.125C1122.19 295.292 1121.92 297.5 1121.75 299.75C1121.58 301.958 1121.71 304.146 1122.12 306.312L1122.06 307H1116.75C1116.54 304.917 1116.52 302.833 1116.69 300.75C1116.85 298.667 1117.1 296.604 1117.44 294.562ZM1123.44 268.625L1122.94 272.938H1107.25C1104.46 272.979 1101.5 273.271 1098.38 273.812C1095.29 274.312 1092.31 275.188 1089.44 276.438C1086.6 277.646 1084.17 279.333 1082.12 281.5C1080.12 283.625 1078.81 286.312 1078.19 289.562C1077.73 292.396 1078.06 294.875 1079.19 297C1080.31 299.083 1081.98 300.708 1084.19 301.875C1086.4 303 1088.83 303.583 1091.5 303.625C1095.67 303.667 1099.54 302.938 1103.12 301.438C1106.75 299.896 1109.98 297.771 1112.81 295.062C1115.69 292.354 1118.06 289.188 1119.94 285.562L1121.56 289.25C1120.23 292.167 1118.5 294.812 1116.38 297.188C1114.25 299.521 1111.83 301.521 1109.12 303.188C1106.46 304.812 1103.6 306.083 1100.56 307C1097.52 307.875 1094.38 308.292 1091.12 308.25C1087.5 308.208 1084.25 307.438 1081.38 305.938C1078.5 304.438 1076.29 302.292 1074.75 299.5C1073.25 296.708 1072.75 293.417 1073.25 289.625C1073.83 285.667 1075.23 282.354 1077.44 279.688C1079.69 277.021 1082.44 274.875 1085.69 273.25C1088.94 271.625 1092.4 270.458 1096.06 269.75C1099.77 269 1103.31 268.625 1106.69 268.625H1123.44ZM1183.81 290.125C1184.44 286.833 1183.9 284.167 1182.19 282.125C1180.48 280.042 1178.25 278.417 1175.5 277.25C1172.79 276.042 1170.15 275.104 1167.56 274.438C1165.1 273.812 1162.6 273.083 1160.06 272.25C1157.56 271.375 1155.29 270.25 1153.25 268.875C1151.25 267.5 1149.71 265.771 1148.62 263.688C1147.58 261.562 1147.27 258.938 1147.69 255.812C1148.06 252.812 1149.04 250.208 1150.62 248C1152.21 245.792 1154.17 243.958 1156.5 242.5C1158.88 241.042 1161.44 239.958 1164.19 239.25C1166.98 238.5 1169.73 238.125 1172.44 238.125C1176.48 238.125 1180.17 238.875 1183.5 240.375C1186.88 241.833 1189.5 244.021 1191.38 246.938C1193.29 249.812 1194.04 253.438 1193.62 257.812H1188.75C1189.04 254.479 1188.46 251.708 1187 249.5C1185.54 247.25 1183.5 245.562 1180.88 244.438C1178.25 243.271 1175.44 242.688 1172.44 242.688C1169.65 242.688 1166.83 243.146 1164 244.062C1161.17 244.938 1158.69 246.333 1156.56 248.25C1154.48 250.167 1153.15 252.625 1152.56 255.625C1152.15 258.083 1152.38 260.146 1153.25 261.812C1154.12 263.479 1155.44 264.854 1157.19 265.938C1158.94 266.979 1160.83 267.833 1162.88 268.5C1164.96 269.167 1166.96 269.75 1168.88 270.25C1172.29 271.167 1175.62 272.354 1178.88 273.812C1182.12 275.271 1184.71 277.292 1186.62 279.875C1188.58 282.417 1189.29 285.771 1188.75 289.938C1188.33 293.146 1187.29 295.896 1185.62 298.188C1184 300.479 1181.94 302.375 1179.44 303.875C1176.98 305.333 1174.29 306.417 1171.38 307.125C1168.5 307.875 1165.65 308.25 1162.81 308.25C1158.9 308.25 1155.15 307.562 1151.56 306.188C1148.02 304.812 1145.17 302.708 1143 299.875C1140.83 297.042 1139.92 293.438 1140.25 289.062L1145.12 289.125C1145 292.583 1145.75 295.396 1147.38 297.562C1149.04 299.729 1151.25 301.292 1154 302.25C1156.75 303.208 1159.69 303.688 1162.81 303.688C1165.65 303.646 1168.56 303.167 1171.56 302.25C1174.6 301.292 1177.25 299.833 1179.5 297.875C1181.79 295.875 1183.23 293.292 1183.81 290.125ZM1246.06 290.125C1246.69 286.833 1246.15 284.167 1244.44 282.125C1242.73 280.042 1240.5 278.417 1237.75 277.25C1235.04 276.042 1232.4 275.104 1229.81 274.438C1227.35 273.812 1224.85 273.083 1222.31 272.25C1219.81 271.375 1217.54 270.25 1215.5 268.875C1213.5 267.5 1211.96 265.771 1210.88 263.688C1209.83 261.562 1209.52 258.938 1209.94 255.812C1210.31 252.812 1211.29 250.208 1212.88 248C1214.46 245.792 1216.42 243.958 1218.75 242.5C1221.12 241.042 1223.69 239.958 1226.44 239.25C1229.23 238.5 1231.98 238.125 1234.69 238.125C1238.73 238.125 1242.42 238.875 1245.75 240.375C1249.12 241.833 1251.75 244.021 1253.62 246.938C1255.54 249.812 1256.29 253.438 1255.88 257.812H1251C1251.29 254.479 1250.71 251.708 1249.25 249.5C1247.79 247.25 1245.75 245.562 1243.12 244.438C1240.5 243.271 1237.69 242.688 1234.69 242.688C1231.9 242.688 1229.08 243.146 1226.25 244.062C1223.42 244.938 1220.94 246.333 1218.81 248.25C1216.73 250.167 1215.4 252.625 1214.81 255.625C1214.4 258.083 1214.62 260.146 1215.5 261.812C1216.38 263.479 1217.69 264.854 1219.44 265.938C1221.19 266.979 1223.08 267.833 1225.12 268.5C1227.21 269.167 1229.21 269.75 1231.12 270.25C1234.54 271.167 1237.88 272.354 1241.12 273.812C1244.38 275.271 1246.96 277.292 1248.88 279.875C1250.83 282.417 1251.54 285.771 1251 289.938C1250.58 293.146 1249.54 295.896 1247.88 298.188C1246.25 300.479 1244.19 302.375 1241.69 303.875C1239.23 305.333 1236.54 306.417 1233.62 307.125C1230.75 307.875 1227.9 308.25 1225.06 308.25C1221.15 308.25 1217.4 307.562 1213.81 306.188C1210.27 304.812 1207.42 302.708 1205.25 299.875C1203.08 297.042 1202.17 293.438 1202.5 289.062L1207.38 289.125C1207.25 292.583 1208 295.396 1209.62 297.562C1211.29 299.729 1213.5 301.292 1216.25 302.25C1219 303.208 1221.94 303.688 1225.06 303.688C1227.9 303.646 1230.81 303.167 1233.81 302.25C1236.85 301.292 1239.5 299.833 1241.75 297.875C1244.04 295.875 1245.48 293.292 1246.06 290.125Z" fill="white"/>
<path d="M726.167 292.95L736.502 286.983L746.837 292.95L746.837 304.884L736.502 310.851L726.167 304.884L726.167 292.95Z" fill="white"/>
<path fill-rule="evenodd" clip-rule="evenodd" d="M728.663 294.391L728.663 303.443L736.502 307.969L744.342 303.443L744.342 294.391L736.502 289.865L728.663 294.391ZM736.502 286.983L726.167 292.95L726.167 304.884L736.502 310.851L746.837 304.884L746.837 292.95L736.502 286.983Z" fill="#6FB327"/>
<path fill-rule="evenodd" clip-rule="evenodd" d="M730.035 295.516L730.035 302.881L736.414 306.564L742.792 302.881L742.792 295.516L736.414 291.833L730.035 295.516ZM736.414 289.488L728.004 294.343L728.004 304.054L736.414 308.909L744.823 304.054L744.823 294.343L736.414 289.488Z" fill="#6FB327"/>
<path fill-rule="evenodd" clip-rule="evenodd" d="M731.563 296.061L731.563 301.94L736.654 304.879L741.745 301.94L741.745 296.061L736.654 293.122L731.563 296.061ZM736.654 291.251L729.943 295.126L729.943 302.875L736.654 306.75L743.366 302.875L743.366 295.126L736.654 291.251Z" fill="#6FB327"/>
</g>
<defs>
<linearGradient id="paint0_linear_127_119" x1="42" y1="57.476" x2="1726.94" y2="444.477" gradientUnits="userSpaceOnUse">
<stop offset="0.18426" stop-color="#236F00" stop-opacity="0"/>
<stop offset="0.460654" stop-color="#062D03" stop-opacity="0.9"/>
<stop offset="0.782436" stop-color="#082B02" stop-opacity="0.5"/>
</linearGradient>
<linearGradient id="paint1_linear_127_119" x1="1061.3" y1="280.903" x2="-11.0001" y2="280.903" gradientUnits="userSpaceOnUse">
<stop stop-color="white" stop-opacity="0.6"/>
<stop offset="1" stop-color="white"/>
</linearGradient>
<linearGradient id="paint2_linear_127_119" x1="1061.3" y1="280.903" x2="-11.0001" y2="280.903" gradientUnits="userSpaceOnUse">
<stop stop-color="white" stop-opacity="0.6"/>
<stop offset="1" stop-color="white"/>
</linearGradient>
<linearGradient id="paint3_linear_127_119" x1="1061.3" y1="280.903" x2="-11.0001" y2="280.903" gradientUnits="userSpaceOnUse">
<stop stop-color="white" stop-opacity="0.6"/>
<stop offset="1" stop-color="white"/>
</linearGradient>
<linearGradient id="paint4_linear_127_119" x1="1061.3" y1="280.903" x2="-11.0001" y2="280.903" gradientUnits="userSpaceOnUse">
<stop stop-color="white" stop-opacity="0.6"/>
<stop offset="1" stop-color="white"/>
</linearGradient>
<clipPath id="clip0_127_119">
<rect width="1803" height="526" fill="white"/>
</clipPath>
</defs>
</svg>

